<svg xmlns="http://www.w3.org/2000/svg" width="41" height="42" fill="none"><g clip-path="url(#a)"><path fill="#FFB44C" d="M8.615 18.58a3.912 3.912 0 0 0-5.531 0L.547 21.116l7.954 7.954a3.715 3.715 0 0 0 5.255 0l2.675-2.675-7.816-7.815z"/><path fill="#F97802" d="M24.462 13.292a3.91 3.91 0 0 0-5.531 0L5.836 26.387l2.675 2.675a3.715 3.715 0 0 0 5.255 0l13.232-13.234-2.536-2.536z"/><path fill="#FFB44C" d="m23.433 19.393-5.302 5.302 4.371 4.371a3.715 3.715 0 0 0 5.255 0l2.675-2.674-6.999-7z"/><path fill="#F97802" d="M38.462 13.288a3.912 3.912 0 0 0-5.531 0L19.836 26.383l2.675 2.675a3.715 3.715 0 0 0 5.255 0l13.232-13.234-2.536-2.536z"/></g><defs><clipPath id="a"><path fill="#fff" d="M.543.817h40.456v40.456H.543z"/></clipPath></defs></svg>