<svg xmlns="http://www.w3.org/2000/svg" width="40" height="40" fill="none"><path fill="#9B64FA" d="M4 3.714C4 2.768 4.768 2 5.714 2h22.054c2.335 0 4.574.892 6.225 2.481 1.651 1.589 2.578 3.743 2.578 5.99v25.815c0 .947-.767 1.714-1.714 1.714H12.803c-2.335 0-4.574-.892-6.225-2.481C4.928 33.931 4 31.776 4 29.529V3.714z"/><path fill="#fff" d="M11.286 13.313a1.2 1.2 0 0 1 1.2-1.2h2.743a1.2 1.2 0 1 1 0 2.4h-2.743a1.2 1.2 0 0 1-1.2-1.2zm0 6.686a1.2 1.2 0 0 1 1.2-1.2h2.743a1.2 1.2 0 0 1 0 2.4h-2.743a1.2 1.2 0 0 1-1.2-1.2zm0 6.686a1.2 1.2 0 0 1 1.2-1.2h2.743a1.2 1.2 0 0 1 0 2.4h-2.743a1.2 1.2 0 0 1-1.2-1.2zm16.912-14.572h-7.253c-.6 0-1.088.537-1.088 1.2 0 .663.487 1.2 1.088 1.2h7.253c.6 0 1.088-.537 1.088-1.2 0-.663-.487-1.2-1.088-1.2zm0 6.686h-7.253c-.6 0-1.088.537-1.088 1.2 0 .663.487 1.2 1.088 1.2h7.253c.6 0 1.088-.537 1.088-1.2 0-.663-.487-1.2-1.088-1.2zm0 6.686h-7.253c-.6 0-1.088.537-1.088 1.2 0 .663.487 1.2 1.088 1.2h7.253c.6 0 1.088-.538 1.088-1.2 0-.663-.487-1.2-1.088-1.2z"/></svg>