<svg xmlns="http://www.w3.org/2000/svg" width="56" height="56" fill="none"><g filter="url(#a)"><path fill="url(#b)" d="M11.667 2.333A4.667 4.667 0 0 0 7 7v42a4.667 4.667 0 0 0 4.667 4.667h32.666A4.667 4.667 0 0 0 49 49V16.334a4.667 4.667 0 0 0-4.667-4.667h-4.666V7A4.667 4.667 0 0 0 35 2.333H11.667zm28 46.667V16.334h4.666V49h-4.666zM21 39.667h4.667A2.333 2.333 0 0 1 28 42v7h-9.333v-7A2.333 2.333 0 0 1 21 39.667zM16.333 17.5c0-.644.523-1.166 1.167-1.166h2.333c.645 0 1.167.522 1.167 1.166v2.334c0 .644-.522 1.166-1.167 1.166H17.5a1.167 1.167 0 0 1-1.167-1.166V17.5zm10.5-1.166h2.334c.644 0 1.166.522 1.166 1.166v2.334c0 .644-.522 1.166-1.166 1.166h-2.334a1.167 1.167 0 0 1-1.166-1.166V17.5c0-.644.522-1.166 1.166-1.166zm-10.5 10.5c0-.645.523-1.167 1.167-1.167h2.333c.645 0 1.167.522 1.167 1.166v2.334c0 .644-.522 1.166-1.167 1.166H17.5a1.167 1.167 0 0 1-1.167-1.166v-2.334zm10.5-1.167h2.334c.644 0 1.166.522 1.166 1.166v2.334c0 .644-.522 1.166-1.166 1.166h-2.334a1.167 1.167 0 0 1-1.166-1.166v-2.334c0-.644.522-1.166 1.166-1.166z"/></g><defs><linearGradient id="b" x1="7" x2="61.107" y1="2.333" y2="29.925" gradientUnits="userSpaceOnUse"><stop stop-color="#FFEBDB"/><stop offset="1" stop-color="#FF811A"/></linearGradient><filter id="a" width="102" height="111.333" x="-23" y="-27.666" color-interpolation-filters="sRGB" filterUnits="userSpaceOnUse"><feFlood flood-opacity="0" result="BackgroundImageFix"/><feGaussianBlur in="BackgroundImageFix" stdDeviation="15"/><feComposite in2="SourceAlpha" operator="in" result="effect1_backgroundBlur_187_225"/><feBlend in="SourceGraphic" in2="effect1_backgroundBlur_187_225" result="shape"/></filter></defs></svg>