<svg xmlns="http://www.w3.org/2000/svg" width="38" height="38" fill="none"><path fill="#4752E6" d="M4.75 7.917A3.176 3.176 0 0 1 7.916 4.75h23.75a3.176 3.176 0 0 1 3.167 3.167V23.75a3.176 3.176 0 0 1-3.167 3.167H23.75v3.166h3.166a1.583 1.583 0 1 1 0 3.167H19a1.583 1.583 0 1 1 0-3.167h1.583v-3.166H19a1.583 1.583 0 1 1 0-3.167h12.666V7.917H7.916v3.166a1.583 1.583 0 1 1-3.166 0V7.917zm1.583 17.416c0-.874.709-1.583 1.583-1.583H9.5a1.583 1.583 0 0 1 0 3.167H7.916a1.583 1.583 0 0 1-1.583-1.584z"/><path fill="#4752E6" d="M1.583 17.417A3.167 3.167 0 0 1 4.75 14.25h7.916a3.167 3.167 0 0 1 3.167 3.167v12.666a3.167 3.167 0 0 1-3.167 3.167H4.75a3.167 3.167 0 0 1-3.167-3.167V17.417zM4.75 30.083h7.916V17.417H4.75v12.666z"/></svg>