<svg xmlns="http://www.w3.org/2000/svg" width="56" height="56" fill="none"><g filter="url(#a)"><path fill="url(#b)" d="M22.166 51.333a2.333 2.333 0 0 0 2.334-2.334v-9.333a2.333 2.333 0 0 1 2.333-2.333h2.334a2.333 2.333 0 0 1 2.333 2.333V49a2.333 2.333 0 0 0 2.333 2.333h12.834a4.667 4.667 0 0 0 4.666-4.667V23.333a4.666 4.666 0 0 0-1.751-3.644L30.915 5.832a4.667 4.667 0 0 0-5.83 0L6.418 19.689a4.667 4.667 0 0 0-1.752 3.644v23.333a4.667 4.667 0 0 0 4.667 4.667h12.833z"/></g><defs><linearGradient id="b" x1="4.667" x2="56.414" y1="4.809" y2="44.75" gradientUnits="userSpaceOnUse"><stop stop-color="#EDF3FF"/><stop offset="1" stop-color="#336DF4"/></linearGradient><filter id="a" width="86.666" height="86.524" x="-15.334" y="-15.191" color-interpolation-filters="sRGB" filterUnits="userSpaceOnUse"><feFlood flood-opacity="0" result="BackgroundImageFix"/><feGaussianBlur in="BackgroundImageFix" stdDeviation="10"/><feComposite in2="SourceAlpha" operator="in" result="effect1_backgroundBlur_187_178"/><feBlend in="SourceGraphic" in2="effect1_backgroundBlur_187_178" result="shape"/></filter></defs></svg>