<svg xmlns="http://www.w3.org/2000/svg" viewBox="0 0 256 256" focusable="false" color="var(--token-d5a17d1f-2990-4a9f-b1ca-388c105e73de, rgb(71, 82, 230))" style="user-select: none; width: 100%; height: 100%; display: inline-block; fill: var(--token-d5a17d1f-2990-4a9f-b1ca-388c105e73de, rgb(71, 82, 230)); color: var(--token-d5a17d1f-2990-4a9f-b1ca-388c105e73de, rgb(71, 82, 230)); flex-shrink: 0;"><g color="var(--token-d5a17d1f-2990-4a9f-b1ca-388c105e73de, rgb(71, 82, 230))" weight="regular"><path d="M173.66,98.34a8,8,0,0,1,0,11.32l-56,56a8,8,0,0,1-11.32,0l-24-24a8,8,0,0,1,11.32-11.32L112,148.69l50.34-50.35A8,8,0,0,1,173.66,98.34ZM232,128A104,104,0,1,1,128,24,104.11,104.11,0,0,1,232,128Zm-16,0a88,88,0,1,0-88,88A88.1,88.1,0,0,0,216,128Z"></path></g></svg>